<svg id="svg" version="1.1" width="400" height="400" viewBox="0 0 400 400" xmlns="http://www.w3.org/2000/svg" xmlns:xlink="http://www.w3.org/1999/xlink" ><g id="svgg"><path id="path0" d="M191.565 62.813 C 163.200 64.606,140.215 78.327,128.062 100.721 C 118.875 117.648,117.796 130.573,123.396 156.600 C 125.385 165.846,125.404 165.982,124.810 166.932 C 115.565 181.722,119.297 206.241,132.675 218.603 L 134.843 220.607 140.843 238.603 C 145.962 253.961,147.279 257.464,149.821 262.492 C 153.186 269.148,153.366 270.217,152.201 276.600 C 149.792 289.803,142.432 301.146,130.733 309.687 C 126.047 313.108,128.323 311.867,98.800 327.103 C 95.610 328.750,91.200 331.041,89.000 332.195 C 86.800 333.349,81.940 335.871,78.200 337.799 C 68.037 343.040,60.362 347.013,55.000 349.809 C 52.360 351.186,47.680 353.612,44.600 355.201 C 41.520 356.790,37.200 359.036,35.000 360.192 C 32.800 361.348,27.940 363.872,24.200 365.801 C 20.460 367.731,17.085 369.583,16.700 369.917 C 16.057 370.475,16.000 371.724,16.000 385.262 L 16.000 400.000 200.200 400.000 L 384.400 400.000 384.400 385.262 C 384.400 371.722,384.343 370.475,383.700 369.923 C 383.315 369.592,379.040 367.289,374.200 364.805 C 369.360 362.321,362.250 358.672,358.400 356.697 C 354.550 354.722,348.880 351.800,345.800 350.203 C 339.325 346.846,329.425 341.763,315.800 334.800 C 310.520 332.102,304.580 329.041,302.600 327.997 C 300.620 326.954,293.960 323.526,287.800 320.379 C 275.091 313.888,272.797 312.506,267.780 308.322 C 254.977 297.642,247.627 284.973,246.908 272.346 L 246.689 268.492 250.308 261.491 C 252.912 256.453,254.395 252.993,255.596 249.146 C 256.514 246.206,257.433 243.260,257.638 242.600 C 257.844 241.940,258.528 239.780,259.159 237.800 C 259.789 235.820,260.709 232.850,261.202 231.200 C 261.695 229.550,262.526 226.910,263.049 225.333 C 263.572 223.756,264.000 222.163,264.000 221.793 C 264.000 221.423,265.449 219.663,267.220 217.882 C 274.984 210.077,278.256 202.934,279.601 190.855 C 280.508 182.708,278.378 172.225,274.792 167.189 L 273.942 165.995 274.753 162.697 C 281.448 135.474,281.223 122.680,273.781 107.400 C 258.464 75.954,229.776 60.396,191.565 62.813 " stroke="none" fill="#374b60" fill-rule="evenodd"></path><path id="path1" d="M0.000 200.000 L 0.000 400.000 8.000 400.000 L 16.000 400.000 16.000 385.262 C 16.000 371.724,16.057 370.475,16.700 369.917 C 17.085 369.583,20.460 367.731,24.200 365.801 C 27.940 363.872,32.800 361.348,35.000 360.192 C 37.200 359.036,41.520 356.790,44.600 355.201 C 47.680 353.612,52.360 351.186,55.000 349.809 C 60.362 347.013,68.037 343.040,78.200 337.799 C 81.940 335.871,86.800 333.349,89.000 332.195 C 91.200 331.040,95.880 328.610,99.400 326.793 C 128.266 311.895,126.053 313.104,130.733 309.687 C 142.432 301.146,149.792 289.803,152.201 276.600 C 153.366 270.217,153.186 269.148,149.821 262.492 C 147.279 257.464,145.962 253.961,140.843 238.603 L 134.843 220.607 132.675 218.603 C 119.297 206.241,115.565 181.722,124.810 166.932 C 125.404 165.982,125.385 165.846,123.396 156.600 C 117.796 130.573,118.875 117.648,128.062 100.721 C 140.534 77.739,162.918 64.679,193.102 62.771 C 229.786 60.452,258.705 76.449,273.781 107.400 C 280.742 121.691,281.280 130.085,276.734 153.400 C 276.090 156.700,275.199 160.884,274.753 162.697 L 273.942 165.995 274.792 167.189 C 278.378 172.225,280.508 182.708,279.601 190.855 C 278.256 202.934,274.984 210.077,267.220 217.882 C 265.449 219.663,264.000 221.423,264.000 221.793 C 264.000 222.163,263.572 223.756,263.049 225.333 C 262.526 226.910,261.695 229.550,261.202 231.200 C 260.709 232.850,259.789 235.820,259.159 237.800 C 258.528 239.780,257.844 241.940,257.638 242.600 C 257.433 243.260,256.514 246.206,255.596 249.146 C 254.395 252.993,252.912 256.453,250.308 261.491 L 246.689 268.492 246.908 272.346 C 247.627 284.973,254.977 297.642,267.780 308.322 C 272.797 312.506,275.091 313.888,287.800 320.379 C 293.960 323.526,300.620 326.954,302.600 327.997 C 304.580 329.041,310.520 332.102,315.800 334.800 C 329.425 341.763,339.325 346.846,345.800 350.203 C 348.880 351.800,354.550 354.722,358.400 356.697 C 362.250 358.672,369.360 362.321,374.200 364.805 C 379.040 367.289,383.315 369.592,383.700 369.923 C 384.343 370.475,384.400 371.722,384.400 385.262 L 384.400 400.000 392.200 400.000 L 400.000 400.000 400.000 200.000 L 400.000 0.000 200.000 0.000 L 0.000 0.000 0.000 200.000 " stroke="none" fill="#e1e6ec" fill-rule="evenodd"></path></g></svg>