<svg id="svg" version="1.1" width="400" height="90.62857142857142" viewBox="0 0 400 90.62857142857142" xmlns="http://www.w3.org/2000/svg" xmlns:xlink="http://www.w3.org/1999/xlink" ><g id="svgg"><path id="path0" d="M187.000 8.601 C 182.017 9.203,179.001 12.967,179.000 18.583 C 178.999 25.087,182.525 28.723,188.833 28.727 C 194.023 28.730,197.135 26.504,198.358 21.917 C 198.657 20.795,198.655 16.543,198.355 15.333 C 197.153 10.489,192.788 7.900,187.000 8.601 M268.083 8.604 C 266.416 8.784,263.603 9.757,262.888 10.402 C 262.777 10.502,262.438 10.763,262.135 10.983 C 258.946 13.295,257.873 19.452,259.937 23.595 C 261.946 27.629,268.450 29.831,274.167 28.413 C 274.671 28.288,275.298 28.140,275.561 28.085 L 276.038 27.984 275.931 26.700 C 275.676 23.614,275.687 23.639,274.719 24.016 C 268.803 26.319,263.268 22.715,264.504 17.365 C 265.503 13.040,269.663 11.435,274.489 13.511 C 275.567 13.975,275.583 13.955,275.729 11.946 C 275.791 11.105,275.881 10.229,275.929 10.000 C 276.024 9.557,275.990 9.541,273.396 8.849 C 272.649 8.650,269.156 8.489,268.083 8.604 M89.833 18.667 L 89.833 28.500 92.917 28.500 L 96.000 28.500 96.000 24.917 L 96.000 21.333 98.149 21.333 L 100.297 21.333 101.149 19.262 C 101.617 18.123,102.000 17.148,102.000 17.096 C 102.000 17.043,100.650 17.000,99.000 17.000 L 96.000 17.000 96.000 15.167 L 96.000 13.333 99.641 13.333 L 103.283 13.333 103.545 12.542 C 103.690 12.106,104.039 11.120,104.321 10.349 C 104.603 9.579,104.833 8.923,104.833 8.891 C 104.833 8.859,101.458 8.833,97.333 8.833 L 89.833 8.833 89.833 18.667 M106.500 18.667 L 106.500 28.500 109.583 28.500 L 112.667 28.500 112.667 18.667 L 112.667 8.833 109.583 8.833 L 106.500 8.833 106.500 18.667 M116.833 18.667 L 116.833 28.500 119.917 28.500 L 123.000 28.500 123.000 24.917 L 123.000 21.333 125.149 21.333 L 127.299 21.333 128.085 19.375 C 128.517 18.298,128.908 17.323,128.953 17.208 C 129.017 17.046,128.365 17.000,126.018 17.000 L 123.000 17.000 123.000 15.167 L 123.000 13.333 126.587 13.333 L 130.174 13.333 130.358 12.875 C 130.459 12.623,130.602 12.267,130.675 12.083 C 130.998 11.281,131.640 9.551,131.743 9.208 L 131.856 8.833 124.345 8.833 L 116.833 8.833 116.833 18.667 M135.064 9.288 C 135.004 9.542,134.899 9.825,134.832 9.917 C 134.766 10.008,134.555 10.533,134.363 11.083 C 133.815 12.661,132.759 15.598,132.086 17.417 C 131.746 18.333,131.432 19.233,131.387 19.417 C 131.342 19.600,131.246 19.900,131.173 20.083 C 131.003 20.508,130.608 21.539,130.247 22.500 C 130.091 22.912,129.827 23.662,129.660 24.167 C 129.223 25.483,128.657 27.039,128.508 27.332 C 128.437 27.470,128.330 27.791,128.269 28.045 L 128.158 28.508 131.191 28.462 L 134.223 28.417 134.546 27.333 C 134.723 26.738,134.896 26.156,134.929 26.042 C 134.975 25.884,135.798 25.833,138.316 25.833 L 141.643 25.833 141.894 26.708 C 142.032 27.190,142.196 27.790,142.257 28.042 L 142.369 28.500 145.538 28.500 C 148.477 28.500,148.699 28.479,148.617 28.208 C 148.568 28.048,148.216 27.054,147.834 26.000 C 147.453 24.946,146.819 23.183,146.425 22.083 C 146.032 20.983,145.506 19.521,145.256 18.833 C 145.006 18.146,144.505 16.758,144.142 15.750 C 143.780 14.742,143.368 13.617,143.228 13.250 C 143.087 12.883,142.684 11.758,142.332 10.750 L 141.691 8.917 138.433 8.871 L 135.175 8.826 135.064 9.288 M151.948 9.875 C 152.071 10.448,152.245 11.279,152.334 11.721 C 152.423 12.164,152.534 12.587,152.580 12.662 C 152.627 12.737,152.823 13.575,153.017 14.524 C 153.211 15.473,153.429 16.512,153.501 16.833 C 153.640 17.446,153.778 18.085,154.328 20.640 C 154.512 21.497,154.734 22.472,154.821 22.807 C 154.995 23.471,155.209 24.408,155.513 25.833 C 155.620 26.337,155.774 26.967,155.854 27.233 C 155.934 27.499,156.000 27.893,156.000 28.108 L 156.000 28.500 159.488 28.500 L 162.976 28.500 163.147 27.625 C 163.242 27.144,163.397 26.281,163.493 25.708 C 163.588 25.135,163.742 24.217,163.833 23.667 C 163.925 23.117,164.072 22.235,164.160 21.708 C 164.249 21.181,164.406 20.225,164.510 19.583 C 164.613 18.942,164.800 17.929,164.923 17.333 C 165.047 16.737,165.195 15.895,165.251 15.462 C 165.388 14.400,165.623 14.317,165.747 15.288 C 165.804 15.726,165.915 16.383,165.995 16.750 C 166.076 17.117,166.231 17.979,166.340 18.667 C 166.449 19.354,166.636 20.329,166.754 20.833 C 166.873 21.337,167.057 22.275,167.162 22.917 C 167.267 23.558,167.418 24.421,167.497 24.833 C 167.577 25.246,167.728 26.071,167.833 26.667 C 167.938 27.262,168.058 27.919,168.099 28.125 C 168.173 28.499,168.180 28.500,171.580 28.500 L 174.987 28.500 175.150 27.875 C 175.240 27.531,175.439 26.650,175.593 25.917 C 175.747 25.183,175.932 24.321,176.003 24.000 C 176.075 23.679,176.223 23.004,176.333 22.500 C 176.560 21.465,176.600 21.284,177.310 18.167 C 177.592 16.929,177.908 15.504,178.014 15.000 C 178.119 14.496,178.263 13.858,178.333 13.583 C 178.404 13.308,178.554 12.633,178.666 12.083 C 178.779 11.533,178.975 10.697,179.102 10.224 C 179.502 8.738,179.663 8.833,176.768 8.833 C 173.843 8.833,174.079 8.699,173.831 10.496 C 173.748 11.094,173.607 12.033,173.517 12.583 C 173.019 15.634,172.807 16.874,172.591 18.000 C 172.216 19.957,172.032 21.018,171.918 21.875 C 171.788 22.857,171.563 22.895,171.424 21.958 C 171.366 21.569,171.215 20.762,171.088 20.167 C 170.961 19.571,170.774 18.596,170.671 18.000 C 170.569 17.404,170.417 16.542,170.333 16.083 C 170.250 15.625,170.098 14.762,169.995 14.167 C 169.892 13.571,169.743 12.746,169.664 12.333 C 169.585 11.921,169.432 11.058,169.324 10.417 C 169.216 9.775,169.101 9.156,169.069 9.042 C 169.025 8.884,168.190 8.833,165.622 8.833 L 162.233 8.833 162.020 10.125 C 161.813 11.376,161.669 12.210,161.345 14.042 C 161.260 14.523,161.103 15.442,160.996 16.083 C 160.889 16.725,160.703 17.737,160.581 18.333 C 160.460 18.929,160.273 19.979,160.166 20.667 C 159.772 23.199,159.761 23.225,159.542 22.083 C 159.283 20.738,158.848 18.301,158.656 17.125 C 158.570 16.598,158.428 15.735,158.340 15.208 C 158.252 14.681,158.099 13.725,158.000 13.083 C 157.901 12.442,157.751 11.504,157.666 11.000 C 157.582 10.496,157.469 9.802,157.415 9.458 L 157.318 8.833 154.521 8.833 L 151.723 8.833 151.948 9.875 M200.167 18.667 L 200.167 28.500 202.833 28.500 L 205.500 28.500 205.500 24.648 L 205.500 20.796 206.636 20.860 C 208.461 20.963,209.093 21.726,210.099 25.035 C 210.330 25.795,210.622 26.679,210.748 27.000 C 210.873 27.321,211.020 27.790,211.074 28.042 L 211.173 28.500 213.992 28.500 L 216.810 28.500 216.671 28.042 C 216.321 26.884,215.481 24.430,215.189 23.711 C 215.012 23.274,214.702 22.467,214.500 21.917 C 214.298 21.367,214.049 20.692,213.946 20.418 C 213.844 20.144,213.512 19.645,213.209 19.310 L 212.660 18.702 213.147 18.532 C 216.216 17.462,216.813 12.055,214.074 10.125 C 212.429 8.965,211.684 8.855,205.375 8.843 L 200.167 8.833 200.167 18.667 M218.667 18.667 L 218.667 28.500 225.333 28.500 L 232.000 28.500 232.000 26.417 L 232.000 24.333 228.000 24.333 L 224.000 24.333 224.000 16.583 L 224.000 8.833 221.333 8.833 L 218.667 8.833 218.667 18.667 M234.167 18.646 L 234.167 28.500 238.208 28.499 C 247.434 28.495,250.651 27.093,252.351 22.333 C 252.859 20.911,252.923 16.497,252.457 15.025 C 250.947 10.257,248.371 9.031,239.542 8.882 L 234.167 8.791 234.167 18.646 M277.366 16.125 C 277.409 21.838,277.470 23.525,277.648 23.917 C 278.346 25.451,278.597 25.859,279.251 26.521 C 282.376 29.687,289.907 29.535,292.800 26.249 C 294.393 24.438,294.487 23.851,294.494 15.625 L 294.500 8.833 291.833 8.833 L 289.167 8.833 289.164 14.958 C 289.161 21.644,289.069 22.524,288.264 23.580 C 287.225 24.942,284.888 25.118,283.796 23.917 C 282.741 22.757,282.755 22.863,282.697 15.542 L 282.643 8.833 279.977 8.833 L 277.311 8.833 277.366 16.125 M296.500 18.647 L 296.500 28.500 299.167 28.500 L 301.833 28.500 301.833 25.083 L 301.833 21.667 303.458 21.667 C 309.173 21.667,312.345 18.661,311.517 14.030 C 310.805 10.046,308.737 9.013,301.208 8.878 L 296.500 8.793 296.500 18.647 M190.751 13.075 C 194.132 15.057,193.919 22.686,190.434 24.425 C 186.324 26.475,182.958 19.990,185.411 14.746 C 186.310 12.823,188.925 12.005,190.751 13.075 M208.581 12.907 C 210.226 13.293,210.904 14.402,210.259 15.650 C 209.807 16.524,208.419 16.995,206.292 16.999 L 205.500 17.000 205.500 14.833 L 205.500 12.667 206.542 12.669 C 207.115 12.671,208.032 12.777,208.581 12.907 M304.250 12.880 C 307.620 13.935,306.540 17.826,302.875 17.832 L 301.833 17.833 301.833 15.250 L 301.833 12.667 302.708 12.669 C 303.190 12.671,303.883 12.766,304.250 12.880 M243.793 13.262 C 246.038 14.005,247.333 15.982,247.333 18.667 C 247.333 22.383,245.252 24.333,241.286 24.333 L 239.500 24.333 239.500 18.563 L 239.500 12.794 241.292 12.910 C 242.277 12.974,243.403 13.133,243.793 13.262 M138.800 16.088 C 139.066 16.910,139.381 17.921,139.498 18.333 C 139.616 18.746,139.776 19.308,139.855 19.583 C 139.933 19.858,140.110 20.442,140.249 20.881 C 140.387 21.319,140.500 21.751,140.500 21.839 C 140.500 21.934,139.613 22.000,138.330 22.000 L 136.160 22.000 136.261 21.542 C 136.352 21.125,137.004 18.861,137.330 17.833 C 137.402 17.604,137.553 17.079,137.665 16.667 C 137.777 16.254,137.935 15.744,138.017 15.534 C 138.099 15.323,138.167 14.992,138.167 14.798 C 138.167 14.250,138.276 14.474,138.800 16.088 M270.208 80.789 C 270.644 80.824,271.356 80.824,271.792 80.789 C 272.227 80.755,271.871 80.727,271.000 80.727 C 270.129 80.727,269.773 80.755,270.208 80.789 M273.375 80.789 C 273.810 80.824,274.523 80.824,274.958 80.789 C 275.394 80.755,275.037 80.727,274.167 80.727 C 273.296 80.727,272.940 80.755,273.375 80.789 " stroke="none" fill="#171714" fill-rule="evenodd"></path><path id="path1" d="M310.167 41.532 C 305.034 42.399,300.802 45.011,298.051 49.009 C 297.588 49.682,297.268 50.224,296.336 51.917 C 294.568 55.128,293.283 60.819,293.070 66.380 C 292.666 76.914,296.860 84.024,304.750 86.178 C 307.294 86.873,307.773 86.964,310.333 87.249 C 320.318 88.360,328.655 85.547,332.324 79.831 C 333.023 78.743,333.381 78.052,334.009 76.583 C 334.866 74.580,335.332 71.491,335.333 67.821 C 335.333 64.733,335.276 64.096,334.658 60.333 C 333.159 51.216,328.414 44.697,321.583 42.371 C 320.635 42.048,320.100 41.918,318.029 41.509 C 316.963 41.298,311.456 41.314,310.167 41.532 M109.833 42.013 C 107.871 42.145,106.065 42.523,104.750 43.077 C 99.301 45.372,97.095 48.449,97.097 53.750 C 97.099 57.126,98.061 59.426,100.449 61.762 C 101.429 62.720,103.168 64.000,103.491 64.000 C 103.588 64.000,103.667 64.066,103.667 64.146 C 103.667 64.226,104.604 64.763,105.749 65.339 C 106.894 65.916,107.865 66.421,107.906 66.462 C 108.008 66.563,112.004 68.421,113.250 68.946 C 120.487 71.996,122.469 73.854,122.118 77.255 C 121.636 81.930,116.136 84.157,108.500 82.771 C 107.629 82.613,106.092 82.333,105.083 82.150 C 104.075 81.966,102.987 81.748,102.667 81.665 C 102.346 81.582,101.671 81.426,101.167 81.320 C 100.662 81.213,100.063 81.064,99.833 80.989 C 97.363 80.178,96.333 80.090,96.333 80.690 C 96.333 80.825,95.580 82.064,94.807 83.202 C 94.398 83.804,94.418 83.928,94.958 84.137 C 96.261 84.643,101.100 85.914,103.000 86.250 C 103.321 86.307,103.996 86.429,104.500 86.521 C 107.028 86.984,112.265 87.493,114.500 87.493 C 117.372 87.493,121.521 86.862,123.750 86.086 C 134.675 82.284,136.450 70.987,127.111 64.685 C 125.035 63.285,118.221 60.149,114.500 58.882 C 113.795 58.642,109.782 56.961,108.500 56.368 C 102.568 53.626,102.800 48.039,108.908 46.541 C 111.490 45.907,117.932 46.416,121.845 47.563 C 123.304 47.990,124.503 48.432,125.769 49.009 C 126.161 49.187,126.516 49.333,126.558 49.333 C 126.748 49.333,129.007 45.812,128.913 45.661 C 128.634 45.209,125.276 43.842,122.750 43.152 C 119.261 42.200,113.972 41.733,109.833 42.013 M149.833 42.013 C 147.871 42.145,146.065 42.523,144.750 43.077 C 139.299 45.373,137.091 48.454,137.100 53.750 C 137.105 56.555,137.456 57.762,138.883 59.893 C 139.910 61.426,142.789 64.000,143.477 64.000 C 143.566 64.000,143.664 64.070,143.694 64.155 C 143.725 64.240,144.649 64.770,145.748 65.334 C 146.846 65.897,147.821 66.415,147.914 66.486 C 148.053 66.591,153.762 69.179,154.917 69.660 C 160.278 71.894,162.436 74.176,162.116 77.274 C 161.637 81.918,156.105 84.152,148.500 82.771 C 143.492 81.861,142.826 81.727,140.167 81.087 C 140.029 81.054,139.242 80.834,138.417 80.599 C 137.592 80.363,136.868 80.170,136.809 80.169 C 136.750 80.168,136.347 80.748,135.914 81.458 C 135.481 82.169,134.986 82.953,134.814 83.202 C 134.397 83.802,134.416 83.927,134.958 84.137 C 136.261 84.643,141.100 85.914,143.000 86.250 C 143.321 86.307,143.996 86.429,144.500 86.521 C 151.165 87.741,157.008 87.744,162.250 86.531 C 169.693 84.807,174.435 78.486,172.853 72.397 C 171.562 67.429,168.225 64.528,159.750 61.004 C 159.017 60.699,158.117 60.324,157.750 60.169 C 157.383 60.015,156.596 59.696,156.000 59.461 C 150.820 57.414,150.614 57.329,148.500 56.365 C 145.788 55.127,144.268 53.325,144.257 51.333 C 144.232 46.740,149.633 45.200,159.500 46.987 C 161.142 47.284,163.968 48.185,165.600 48.931 L 166.555 49.368 166.863 48.976 C 167.703 47.903,168.999 45.800,168.910 45.655 C 168.633 45.208,165.261 43.838,162.750 43.152 C 159.261 42.200,153.972 41.733,149.833 42.013 M268.500 42.019 C 261.307 42.438,256.101 45.825,254.308 51.250 C 254.001 52.179,254.010 56.160,254.321 57.250 C 255.020 59.695,255.630 60.479,256.421 59.945 C 256.602 59.823,257.087 59.592,257.500 59.431 C 257.912 59.271,258.492 59.025,258.787 58.886 L 259.324 58.633 259.041 58.108 C 258.623 57.334,258.636 53.905,259.062 52.750 C 259.469 51.647,260.052 50.430,260.208 50.361 C 260.277 50.331,260.333 50.214,260.333 50.102 C 260.333 49.661,262.179 48.039,263.366 47.438 C 271.919 43.104,281.060 51.400,276.642 59.487 C 274.376 63.634,268.616 69.838,262.268 74.970 C 261.892 75.275,261.396 75.689,261.167 75.891 C 260.938 76.092,260.451 76.480,260.087 76.753 C 259.332 77.318,259.254 77.378,258.000 78.372 C 256.775 79.343,254.171 81.268,252.833 82.193 L 251.750 82.942 251.703 84.638 L 251.655 86.333 270.494 86.333 L 289.333 86.333 289.333 83.477 L 289.333 80.620 276.625 80.722 C 269.635 80.778,264.029 80.777,264.167 80.721 C 267.219 79.463,274.543 75.495,275.333 74.670 C 275.379 74.622,275.904 74.250,276.500 73.842 C 287.252 66.481,291.432 57.951,287.807 50.764 C 286.795 48.757,283.763 45.333,282.998 45.333 C 282.907 45.333,282.833 45.269,282.833 45.189 C 282.833 44.973,279.926 43.580,278.475 43.101 C 275.583 42.147,272.339 41.795,268.500 42.019 M374.833 42.008 C 364.311 42.750,358.335 51.978,363.768 59.095 C 364.672 60.280,367.191 62.333,367.739 62.333 C 367.793 62.333,368.155 62.473,368.543 62.644 C 368.932 62.815,369.426 63.023,369.642 63.108 C 369.994 63.246,369.942 63.284,369.142 63.477 C 361.852 65.236,358.136 69.084,358.148 74.860 C 358.162 81.240,362.373 85.346,370.583 86.983 C 374.924 87.849,379.670 87.856,383.583 87.002 C 386.157 86.441,387.424 86.032,389.167 85.201 C 389.854 84.873,390.454 84.562,390.500 84.510 C 390.546 84.459,390.797 84.306,391.058 84.171 C 392.515 83.419,394.639 80.817,395.346 78.917 C 396.171 76.699,396.237 71.848,395.453 71.064 C 395.387 70.998,395.333 70.841,395.333 70.714 C 395.333 70.002,393.178 67.421,391.634 66.284 C 390.297 65.299,387.607 64.152,385.000 63.454 C 384.110 63.215,384.098 63.204,384.583 63.076 C 387.649 62.268,390.951 59.221,391.800 56.417 C 394.447 47.671,386.786 41.165,374.833 42.008 M5.167 64.750 L 5.167 86.333 9.833 86.333 L 14.500 86.333 14.500 66.500 L 14.500 46.667 19.708 46.667 C 29.705 46.669,32.444 47.246,34.341 49.750 C 37.036 53.308,35.355 57.934,29.917 61.926 C 29.550 62.195,29.212 62.457,29.167 62.508 C 29.083 62.601,28.121 63.262,26.583 64.281 C 26.125 64.585,25.659 64.908,25.549 65.000 C 25.438 65.092,25.308 65.167,25.260 65.167 C 25.212 65.167,24.772 65.423,24.282 65.736 C 23.792 66.050,23.097 66.473,22.737 66.677 C 22.105 67.035,21.836 67.185,19.500 68.486 C 18.904 68.818,18.060 69.275,17.625 69.503 L 16.833 69.916 16.833 73.541 C 16.833 75.535,16.863 77.167,16.900 77.167 C 16.936 77.167,17.405 76.951,17.941 76.686 C 18.478 76.422,19.292 76.038,19.750 75.832 C 20.498 75.496,25.607 73.043,25.848 72.904 C 25.934 72.854,26.904 73.989,30.395 78.228 C 30.934 78.882,31.571 79.643,31.812 79.919 C 32.053 80.196,32.547 80.796,32.911 81.253 C 33.275 81.710,33.614 82.121,33.664 82.167 C 33.715 82.212,34.466 83.112,35.333 84.167 C 36.200 85.221,36.986 86.138,37.080 86.206 C 37.368 86.413,47.333 86.360,47.333 86.152 C 47.333 86.009,46.093 84.412,45.663 84.000 C 45.615 83.954,45.203 83.467,44.746 82.917 C 44.290 82.367,43.876 81.879,43.826 81.833 C 43.777 81.787,42.618 80.400,41.252 78.750 C 39.885 77.100,38.725 75.712,38.673 75.667 C 38.621 75.621,38.247 75.171,37.842 74.667 C 37.437 74.162,37.024 73.675,36.924 73.583 C 36.824 73.492,36.446 73.042,36.084 72.583 C 35.722 72.125,35.220 71.525,34.970 71.250 C 34.719 70.975,34.220 70.378,33.862 69.924 L 33.210 69.098 33.980 68.599 C 34.403 68.324,35.135 67.863,35.606 67.573 C 37.399 66.472,41.566 63.148,42.417 62.142 C 45.531 58.457,46.229 56.934,46.224 53.832 C 46.217 48.164,42.882 44.856,36.000 43.689 C 33.259 43.224,31.334 43.167,18.530 43.167 L 5.167 43.167 5.167 64.750 M53.687 44.292 C 53.573 44.910,53.414 45.754,53.333 46.167 C 53.253 46.579,53.100 47.442,52.994 48.083 C 52.888 48.725,52.702 49.700,52.580 50.250 C 52.459 50.800,52.276 51.775,52.174 52.417 C 52.071 53.058,51.915 54.015,51.827 54.542 C 51.453 56.779,51.340 57.487,51.160 58.750 C 51.056 59.483,50.870 60.721,50.747 61.500 C 49.745 67.858,49.666 71.221,50.440 74.479 C 50.695 75.552,50.797 75.846,51.357 77.123 C 51.527 77.512,51.667 77.867,51.667 77.912 C 51.667 78.223,53.699 81.019,54.581 81.923 C 58.599 86.035,66.521 88.156,74.507 87.259 C 86.822 85.874,93.198 78.353,91.834 66.818 C 91.743 66.047,91.587 64.704,91.488 63.833 C 91.388 62.962,91.205 61.650,91.080 60.917 C 90.955 60.183,90.769 59.021,90.666 58.333 C 90.321 56.030,89.936 53.634,89.662 52.083 C 89.581 51.625,89.430 50.762,89.327 50.167 C 89.104 48.881,88.712 46.865,88.491 45.873 C 88.404 45.482,88.333 45.003,88.333 44.809 C 88.333 44.614,88.246 44.165,88.140 43.811 L 87.947 43.167 83.660 43.167 L 79.374 43.167 79.504 43.875 C 79.626 44.540,79.708 45.126,80.172 48.667 C 80.274 49.446,80.459 50.758,80.582 51.583 C 81.078 54.913,81.699 61.284,82.018 66.333 C 82.522 74.323,81.742 77.520,78.517 80.667 C 72.117 86.912,61.714 83.141,59.897 73.917 C 59.441 71.603,59.931 62.481,60.913 55.000 C 61.039 54.038,61.227 52.538,61.331 51.667 C 61.435 50.796,61.585 49.633,61.665 49.083 C 61.745 48.533,61.897 47.408,62.003 46.583 C 62.109 45.758,62.264 44.723,62.348 44.283 C 62.431 43.844,62.500 43.412,62.500 43.325 C 62.500 43.229,60.806 43.167,58.197 43.167 L 53.894 43.167 53.687 44.292 M178.833 65.000 L 178.833 86.833 183.417 86.833 L 188.000 86.833 188.000 65.000 L 188.000 43.167 183.417 43.167 L 178.833 43.167 178.833 65.000 M215.699 44.059 C 215.305 44.544,214.815 45.122,214.611 45.345 C 214.058 45.949,212.320 48.109,211.756 48.895 C 211.484 49.274,211.059 49.808,210.812 50.083 C 210.565 50.358,209.816 51.333,209.146 52.250 C 208.477 53.167,207.883 53.954,207.826 54.000 C 207.520 54.247,202.216 62.141,201.500 63.416 C 201.334 63.712,201.097 64.133,200.974 64.352 C 200.851 64.571,200.702 64.787,200.643 64.833 C 200.288 65.109,197.397 70.847,196.436 73.182 C 193.080 81.343,194.257 86.072,199.941 87.261 C 203.883 88.086,210.121 86.438,216.167 82.975 C 216.671 82.686,217.233 82.365,217.417 82.260 C 218.343 81.734,220.079 80.689,220.408 80.461 C 220.504 80.394,221.502 79.725,222.625 78.975 C 225.100 77.322,225.034 77.746,223.274 74.778 C 222.848 74.060,222.500 73.412,222.500 73.337 C 222.500 72.912,221.891 73.142,220.731 74.005 C 213.726 79.218,206.514 80.662,205.335 77.087 C 204.821 75.531,205.797 70.820,207.338 67.417 C 207.693 66.634,207.867 66.214,208.172 65.417 C 208.389 64.847,212.465 56.630,212.967 55.750 C 213.228 55.292,213.767 54.317,214.165 53.583 C 214.563 52.850,215.052 51.987,215.251 51.667 C 215.451 51.346,215.645 51.008,215.682 50.917 C 215.719 50.825,216.048 50.242,216.412 49.622 L 217.074 48.494 217.544 49.872 C 218.812 53.597,219.647 55.993,219.826 56.417 C 219.903 56.600,220.057 57.012,220.168 57.333 C 220.279 57.654,220.543 58.367,220.754 58.917 C 220.965 59.467,221.288 60.329,221.471 60.833 C 223.390 66.098,228.144 78.308,228.671 79.322 C 228.746 79.466,229.493 80.990,230.333 82.708 L 231.859 85.833 236.652 85.833 C 239.288 85.833,241.494 85.784,241.555 85.723 C 241.615 85.662,241.411 85.156,241.101 84.598 C 240.086 82.772,237.276 77.066,236.210 74.667 C 234.594 71.032,234.331 70.417,233.768 68.956 C 233.529 68.336,233.192 67.511,233.019 67.123 C 232.846 66.734,232.553 66.004,232.366 65.500 C 232.180 64.996,231.689 63.683,231.274 62.583 C 230.209 59.757,228.130 53.452,227.481 51.083 C 227.381 50.717,227.204 50.117,227.088 49.750 C 226.705 48.540,226.497 47.775,225.933 45.500 L 225.376 43.250 220.897 43.215 L 216.417 43.179 215.699 44.059 M348.000 43.537 C 345.494 45.028,343.729 45.643,340.481 46.158 C 339.874 46.255,339.143 46.333,338.856 46.333 L 338.333 46.333 338.333 47.833 L 338.333 49.333 339.480 49.333 C 341.212 49.333,342.375 49.941,343.005 51.176 C 343.325 51.805,343.333 52.230,343.333 68.993 L 343.333 86.167 348.000 86.167 L 352.667 86.167 352.667 64.667 L 352.667 43.167 350.625 43.178 C 348.868 43.189,348.502 43.239,348.000 43.537 M379.637 45.697 C 385.610 48.169,385.542 58.694,379.536 61.184 L 378.656 61.549 378.703 63.383 L 378.750 65.217 379.750 65.540 C 386.280 67.646,387.740 80.520,381.759 83.254 C 378.173 84.893,372.928 84.311,370.802 82.039 C 369.221 80.348,368.627 78.602,368.632 75.656 C 368.636 73.572,368.669 73.370,369.359 71.167 C 370.294 68.180,372.448 66.000,375.130 65.323 L 376.011 65.101 375.964 63.365 L 375.917 61.629 374.915 61.267 C 371.146 59.903,369.315 55.511,370.455 50.567 C 371.424 46.365,375.731 44.080,379.637 45.697 M316.089 46.244 C 321.168 47.567,324.047 53.064,324.996 63.250 C 325.580 69.511,324.730 74.923,322.638 78.267 C 318.750 84.482,308.674 84.084,305.312 77.583 C 304.391 75.803,304.052 74.680,303.508 71.597 C 302.923 68.288,303.531 59.722,304.650 55.500 C 305.018 54.113,306.428 50.810,306.702 50.694 C 306.774 50.664,306.833 50.564,306.833 50.474 C 306.833 50.137,308.279 48.465,309.167 47.775 C 311.206 46.191,313.735 45.631,316.089 46.244 " stroke="none" fill="#d30309" fill-rule="evenodd"></path></g></svg>