<svg id="svg" version="1.1" width="400" height="74.3801652892562" viewBox="0 0 400 74.3801652892562" xmlns="http://www.w3.org/2000/svg" xmlns:xlink="http://www.w3.org/1999/xlink" ><g id="svgg"><path id="path0" d="M39.209 63.583 C 39.211 63.950,39.245 64.080,39.285 63.873 C 39.324 63.666,39.323 63.366,39.281 63.206 C 39.239 63.047,39.207 63.217,39.209 63.583 M39.209 67.750 C 39.211 68.117,39.245 68.247,39.285 68.040 C 39.324 67.832,39.323 67.532,39.281 67.373 C 39.239 67.214,39.207 67.383,39.209 67.750 " stroke="none" fill="#000000" fill-rule="evenodd"></path><path id="path1" d="M196.595 1.595 C 196.416 1.774,196.333 2.169,196.333 2.845 C 196.333 3.602,196.276 3.833,196.089 3.833 C 195.785 3.833,195.500 4.346,195.500 4.894 C 195.500 5.199,195.400 5.324,195.125 5.363 C 194.861 5.401,194.735 5.547,194.699 5.858 C 194.668 6.125,194.522 6.332,194.329 6.383 C 194.106 6.441,193.976 6.673,193.900 7.150 C 193.808 7.727,193.729 7.833,193.395 7.833 C 193.085 7.833,193.000 7.923,193.000 8.250 C 193.000 8.583,192.917 8.667,192.583 8.667 C 192.250 8.667,192.167 8.750,192.167 9.083 C 192.167 9.417,192.083 9.500,191.750 9.500 C 191.417 9.500,191.333 9.583,191.333 9.917 C 191.333 10.250,191.250 10.333,190.917 10.333 C 190.589 10.333,190.500 10.418,190.500 10.729 C 190.500 11.063,190.394 11.141,189.817 11.233 C 189.339 11.310,189.108 11.439,189.050 11.662 C 188.999 11.855,188.792 12.001,188.525 12.032 C 188.214 12.068,188.068 12.194,188.030 12.458 C 187.992 12.730,187.865 12.833,187.572 12.833 C 187.253 12.833,187.167 12.920,187.167 13.241 C 187.167 13.609,187.090 13.653,186.375 13.699 C 185.705 13.742,185.575 13.806,185.531 14.116 C 185.487 14.425,185.357 14.490,184.698 14.533 C 184.033 14.576,183.909 14.639,183.863 14.958 C 183.812 15.317,183.741 15.333,182.238 15.333 L 180.667 15.333 180.667 16.083 C 180.667 16.722,180.716 16.833,181.000 16.833 C 181.292 16.833,181.333 16.944,181.333 17.727 C 181.333 19.348,181.509 20.167,181.856 20.167 C 182.154 20.167,182.167 20.430,182.167 26.417 C 182.167 32.463,182.156 32.667,181.848 32.667 C 181.572 32.667,181.512 32.837,181.411 33.917 C 181.311 34.988,181.249 35.167,180.980 35.167 C 180.759 35.167,180.667 35.286,180.667 35.572 C 180.667 35.865,180.563 35.992,180.292 36.030 C 179.974 36.075,179.917 36.186,179.917 36.750 L 179.917 37.417 181.864 37.464 C 183.732 37.508,183.814 37.525,183.864 37.880 C 183.909 38.194,184.036 38.258,184.708 38.301 C 185.423 38.347,185.500 38.391,185.500 38.759 C 185.500 39.080,185.587 39.167,185.905 39.167 C 186.198 39.167,186.325 39.270,186.363 39.542 C 186.397 39.777,186.551 39.936,186.776 39.968 C 186.995 39.999,187.175 40.178,187.238 40.426 C 187.301 40.680,187.459 40.833,187.658 40.833 C 187.862 40.833,187.996 40.969,188.030 41.208 C 188.064 41.449,188.217 41.602,188.458 41.637 C 188.730 41.675,188.833 41.802,188.833 42.095 C 188.833 42.413,188.920 42.500,189.241 42.500 C 189.609 42.500,189.653 42.577,189.699 43.292 C 189.742 43.961,189.806 44.091,190.116 44.135 C 190.425 44.179,190.490 44.310,190.533 44.969 C 190.575 45.628,190.641 45.758,190.950 45.802 C 191.259 45.846,191.324 45.977,191.366 46.635 L 191.417 47.417 192.583 47.417 C 193.654 47.417,193.754 47.387,193.802 47.055 C 193.851 46.708,193.943 46.691,196.025 46.638 C 198.042 46.587,198.218 46.557,198.500 46.208 L 198.803 45.833 206.223 45.833 L 213.643 45.833 213.697 46.208 C 213.747 46.564,213.833 46.586,215.375 46.631 C 216.978 46.678,217.000 46.684,217.000 47.089 C 217.000 47.470,217.060 47.500,217.822 47.500 C 218.547 47.500,218.650 47.544,218.697 47.875 C 218.742 48.195,218.866 48.257,219.542 48.301 C 220.256 48.347,220.333 48.391,220.333 48.759 C 220.333 49.083,220.419 49.167,220.750 49.167 C 221.056 49.167,221.167 49.256,221.167 49.500 C 221.167 49.683,221.265 49.833,221.384 49.833 C 221.696 49.833,222.833 50.915,222.833 51.211 C 222.833 51.349,222.973 51.498,223.145 51.543 C 223.368 51.601,223.488 51.842,223.571 52.395 C 223.663 53.008,223.754 53.167,224.010 53.167 C 224.551 53.167,224.502 56.619,223.960 56.697 C 223.745 56.727,223.560 56.891,223.523 57.082 C 223.489 57.264,223.319 57.512,223.147 57.633 C 222.974 57.753,222.833 57.960,222.833 58.093 C 222.833 58.238,222.669 58.333,222.417 58.333 C 222.111 58.333,222.000 58.422,222.000 58.667 C 222.000 58.907,221.889 59.000,221.601 59.000 C 221.315 59.000,221.173 59.118,221.098 59.417 C 220.999 59.813,220.934 59.833,219.788 59.836 C 218.266 59.838,217.833 59.953,217.833 60.353 C 217.833 60.839,211.244 60.840,211.090 60.353 C 210.971 59.980,210.354 59.833,208.907 59.833 C 207.944 59.833,207.852 59.802,207.803 59.458 C 207.758 59.139,207.634 59.076,206.969 59.033 C 206.310 58.990,206.179 58.925,206.135 58.616 C 206.102 58.384,205.946 58.231,205.708 58.197 C 205.467 58.163,205.333 58.029,205.333 57.822 C 205.333 57.592,205.217 57.500,204.928 57.500 C 204.672 57.500,204.484 57.380,204.419 57.175 C 204.363 56.997,204.174 56.805,204.000 56.750 C 203.826 56.695,203.639 56.507,203.583 56.333 C 203.528 56.159,203.337 55.971,203.158 55.914 C 202.953 55.849,202.833 55.661,202.833 55.405 C 202.833 55.084,202.747 55.000,202.417 55.000 C 202.028 55.000,202.000 54.944,202.000 54.167 C 202.000 53.389,201.972 53.333,201.583 53.333 C 201.176 53.333,201.167 53.306,201.167 52.082 L 201.167 50.831 191.708 50.874 L 182.250 50.917 182.200 53.167 C 182.140 55.898,182.226 56.500,182.674 56.500 C 182.990 56.500,183.000 56.647,183.000 61.083 C 183.000 65.507,182.989 65.667,182.677 65.667 C 182.232 65.667,182.137 66.462,182.200 69.667 L 182.250 72.250 183.417 72.303 C 185.260 72.387,186.333 72.209,186.333 71.821 C 186.333 71.514,186.487 71.500,189.750 71.500 C 192.627 71.500,193.167 71.538,193.167 71.742 C 193.167 72.239,196.154 72.538,198.027 72.229 L 198.637 72.128 198.752 70.981 C 198.850 70.005,198.915 69.833,199.184 69.833 C 199.417 69.833,199.500 69.714,199.500 69.380 L 199.500 68.926 199.759 69.296 C 199.902 69.500,200.127 69.667,200.259 69.667 C 200.407 69.667,200.500 69.833,200.500 70.099 C 200.500 70.384,200.608 70.560,200.818 70.614 C 201.143 70.699,201.327 71.122,201.331 71.792 C 201.333 72.043,201.434 72.167,201.639 72.167 C 201.870 72.167,201.981 72.358,202.097 72.958 L 202.250 73.750 203.111 73.800 C 203.792 73.839,204.035 73.782,204.278 73.524 C 204.450 73.340,204.930 73.146,205.375 73.080 C 205.998 72.987,206.167 72.895,206.167 72.648 C 206.167 72.363,206.307 72.333,207.646 72.333 C 209.528 72.333,210.189 72.202,210.292 71.808 C 210.419 71.322,222.653 71.330,222.780 71.815 C 222.880 72.195,223.469 72.333,224.981 72.333 C 225.896 72.333,226.121 72.389,226.289 72.658 C 226.437 72.894,226.762 73.013,227.482 73.095 C 228.267 73.183,228.489 73.273,228.556 73.530 C 228.749 74.266,230.075 73.869,230.134 73.058 C 230.176 72.482,230.253 72.348,230.592 72.263 C 230.948 72.173,231.000 72.066,231.000 71.425 C 231.000 70.790,231.051 70.683,231.375 70.637 C 231.642 70.599,231.765 70.453,231.802 70.133 C 231.833 69.864,231.984 69.641,232.177 69.580 C 232.394 69.511,232.533 69.267,232.603 68.831 C 232.682 68.339,232.791 68.173,233.062 68.134 C 233.279 68.103,233.437 67.942,233.469 67.719 C 233.501 67.491,233.658 67.334,233.885 67.302 C 234.112 67.270,234.270 67.112,234.302 66.885 C 234.334 66.658,234.491 66.501,234.719 66.469 C 234.946 66.436,235.103 66.279,235.135 66.052 C 235.168 65.825,235.325 65.668,235.552 65.635 C 235.776 65.603,235.936 65.446,235.967 65.228 C 236.006 64.958,236.172 64.848,236.664 64.770 C 237.109 64.699,237.344 64.562,237.417 64.333 C 237.484 64.120,237.669 64.000,237.928 64.000 C 238.249 64.000,238.333 63.914,238.333 63.583 C 238.333 63.253,238.417 63.167,238.738 63.167 C 239.032 63.167,239.158 63.063,239.197 62.792 C 239.242 62.472,239.366 62.409,240.042 62.366 C 240.756 62.320,240.833 62.275,240.833 61.908 C 240.833 61.530,240.894 61.500,241.667 61.500 C 242.444 61.500,242.500 61.472,242.500 61.083 L 242.500 60.667 244.250 60.667 C 245.755 60.667,246.045 60.622,246.321 60.346 C 246.703 59.964,246.603 59.329,246.141 59.208 C 245.877 59.139,245.833 58.954,245.833 57.897 C 245.833 56.696,245.823 56.667,245.417 56.667 L 245.000 56.667 245.000 49.644 L 245.000 42.622 245.417 42.235 C 245.765 41.913,245.833 41.697,245.833 40.925 C 245.833 40.049,245.856 40.000,246.250 40.000 C 246.631 40.000,246.667 39.938,246.667 39.268 C 246.667 38.405,246.551 38.333,245.153 38.333 C 244.278 38.333,244.167 38.296,244.167 38.000 C 244.167 37.712,244.056 37.667,243.345 37.667 C 242.620 37.667,242.517 37.623,242.470 37.292 C 242.424 36.972,242.301 36.909,241.625 36.866 C 240.910 36.820,240.833 36.775,240.833 36.408 C 240.833 36.084,240.748 36.000,240.417 36.000 C 240.083 36.000,240.000 35.917,240.000 35.583 C 240.000 35.250,239.917 35.167,239.583 35.167 C 239.250 35.167,239.167 35.083,239.167 34.750 C 239.167 34.417,239.083 34.333,238.750 34.333 C 238.417 34.333,238.333 34.250,238.333 33.917 C 238.333 33.619,238.243 33.500,238.018 33.500 C 237.821 33.500,237.664 33.344,237.598 33.083 C 237.534 32.826,237.375 32.667,237.185 32.667 C 236.952 32.667,236.849 32.498,236.767 31.983 C 236.691 31.513,236.560 31.274,236.345 31.218 C 236.123 31.160,236.001 30.921,235.920 30.383 C 235.838 29.836,235.719 29.606,235.487 29.545 C 235.242 29.481,235.167 29.312,235.167 28.828 C 235.167 27.730,235.093 27.667,233.816 27.667 C 232.704 27.667,232.667 27.680,232.667 28.080 L 232.667 28.493 229.375 28.538 C 226.104 28.583,226.083 28.586,226.030 28.958 L 225.977 29.333 220.250 29.333 L 214.523 29.333 214.470 28.958 C 214.418 28.596,214.349 28.582,212.386 28.537 C 210.432 28.492,210.353 28.476,210.303 28.120 C 210.255 27.782,210.145 27.746,209.042 27.701 C 207.883 27.654,207.833 27.635,207.833 27.243 C 207.833 26.863,207.774 26.833,207.000 26.833 C 206.222 26.833,206.167 26.806,206.167 26.417 C 206.167 26.087,206.083 26.000,205.762 26.000 C 205.468 26.000,205.342 25.896,205.303 25.625 C 205.269 25.384,205.116 25.231,204.875 25.197 C 204.635 25.163,204.500 25.028,204.500 24.825 C 204.500 24.624,204.346 24.468,204.083 24.402 C 203.780 24.326,203.667 24.186,203.667 23.888 C 203.667 23.345,203.381 22.833,203.077 22.833 C 202.879 22.833,202.833 22.509,202.833 21.083 C 202.833 20.118,202.903 19.333,202.988 19.333 C 203.304 19.333,203.667 18.794,203.667 18.325 C 203.667 17.946,203.758 17.817,204.083 17.735 C 204.344 17.670,204.500 17.513,204.500 17.315 C 204.500 17.083,204.621 16.999,204.958 16.998 C 205.744 16.994,206.167 16.813,206.167 16.481 C 206.167 16.227,206.291 16.167,206.813 16.167 C 207.862 16.167,208.482 15.985,208.590 15.647 C 208.684 15.350,208.932 15.333,213.250 15.333 L 217.810 15.333 217.863 15.708 C 217.909 16.027,218.033 16.091,218.691 16.133 C 219.282 16.172,219.485 16.257,219.547 16.495 C 219.606 16.719,219.846 16.840,220.398 16.923 C 220.999 17.013,221.167 17.106,221.167 17.352 C 221.167 17.572,221.286 17.667,221.564 17.667 C 221.826 17.667,221.992 17.785,222.052 18.012 C 222.101 18.203,222.297 18.399,222.488 18.448 C 222.678 18.498,222.833 18.634,222.833 18.750 C 222.833 18.867,223.021 19.085,223.250 19.235 C 223.479 19.385,223.667 19.656,223.667 19.837 C 223.667 20.052,223.779 20.167,223.988 20.167 C 224.195 20.167,224.329 20.301,224.363 20.542 C 224.397 20.776,224.551 20.936,224.772 20.967 C 225.081 21.011,225.138 21.152,225.201 22.028 C 225.257 22.809,225.355 23.099,225.630 23.310 C 225.924 23.535,225.995 23.788,226.035 24.750 L 226.083 25.917 227.250 25.917 C 228.335 25.917,228.420 25.890,228.470 25.540 L 228.524 25.163 235.137 25.206 L 241.750 25.250 241.804 25.632 C 241.855 25.993,241.921 26.012,242.971 25.966 L 244.083 25.917 244.129 23.561 L 244.176 21.205 243.754 21.099 L 243.333 20.994 243.333 14.330 C 243.333 8.589,243.367 7.667,243.577 7.667 C 244.048 7.667,244.178 7.031,244.130 4.960 L 244.083 2.917 242.083 2.868 C 239.741 2.812,239.333 2.881,239.333 3.337 C 239.333 3.844,234.414 3.850,234.253 3.342 C 234.120 2.923,233.142 2.770,231.198 2.863 C 229.344 2.951,229.333 2.959,229.333 4.248 C 229.333 5.223,229.302 5.315,228.958 5.363 C 228.717 5.398,228.564 5.551,228.530 5.792 C 228.427 6.514,227.728 6.282,227.600 5.483 C 227.522 4.998,227.395 4.775,227.162 4.714 C 226.954 4.659,226.833 4.486,226.833 4.241 C 226.833 3.648,226.536 3.000,226.263 3.000 C 226.089 3.000,226.004 2.771,225.967 2.208 L 225.917 1.417 224.965 1.367 C 224.155 1.325,223.981 1.368,223.800 1.659 C 223.678 1.854,223.407 2.001,223.168 2.002 C 222.457 2.006,222.034 2.184,221.948 2.515 C 221.878 2.783,221.708 2.833,220.870 2.833 C 219.464 2.833,218.804 2.994,218.708 3.359 C 218.635 3.639,218.427 3.667,216.418 3.667 C 213.809 3.667,213.152 3.769,213.042 4.192 C 212.935 4.602,208.500 4.674,208.500 4.266 C 208.500 3.847,207.491 3.667,205.142 3.667 C 202.992 3.667,202.833 3.645,202.833 3.353 C 202.833 2.976,202.402 2.839,201.208 2.836 C 200.463 2.834,200.333 2.787,200.333 2.519 C 200.333 2.190,199.911 2.006,199.144 2.002 C 198.847 2.001,198.677 1.893,198.618 1.667 C 198.505 1.235,197.008 1.182,196.595 1.595 M3.033 3.033 C 2.620 3.446,2.885 5.333,3.355 5.333 C 3.651 5.333,3.667 5.542,3.667 9.500 C 3.667 13.504,3.654 13.667,3.345 13.667 C 3.080 13.667,3.004 13.830,2.906 14.612 C 2.742 15.922,2.875 16.073,4.247 16.133 C 5.143 16.173,5.433 16.253,5.650 16.521 C 5.873 16.796,6.190 16.878,7.337 16.955 C 8.449 17.031,8.796 17.117,8.968 17.359 C 9.088 17.528,9.325 17.667,9.496 17.667 C 10.027 17.667,10.333 17.856,10.333 18.184 C 10.333 18.406,10.452 18.500,10.730 18.500 C 11.097 18.500,11.132 18.577,11.201 19.525 C 11.258 20.320,11.356 20.615,11.637 20.843 C 12.211 21.307,12.200 25.948,11.625 26.030 C 11.255 26.083,11.249 26.119,11.204 28.958 L 11.159 31.833 10.746 31.833 C 10.344 31.833,10.333 31.864,10.333 33.083 C 10.333 34.306,10.324 34.333,9.917 34.333 C 9.585 34.333,9.500 34.417,9.500 34.744 C 9.500 34.984,9.362 35.229,9.167 35.333 C 8.983 35.431,8.833 35.622,8.833 35.756 C 8.833 35.916,8.661 36.000,8.333 36.000 C 7.852 36.000,7.833 36.028,7.833 36.750 C 7.833 37.439,7.867 37.500,8.250 37.500 C 8.583 37.500,8.667 37.583,8.667 37.917 C 8.667 38.248,8.751 38.333,9.074 38.333 C 9.442 38.333,9.487 38.410,9.533 39.125 C 9.576 39.801,9.638 39.924,9.958 39.970 L 10.333 40.023 10.333 46.667 L 10.333 53.310 9.958 53.363 C 9.614 53.412,9.579 53.516,9.534 54.625 C 9.487 55.784,9.469 55.833,9.076 55.833 C 8.750 55.833,8.667 55.919,8.667 56.250 C 8.667 56.583,8.583 56.667,8.250 56.667 C 7.952 56.667,7.833 56.757,7.833 56.982 C 7.833 57.179,7.677 57.336,7.417 57.402 C 7.158 57.467,7.000 57.625,7.000 57.818 C 7.000 58.098,6.824 58.135,5.231 58.194 C 3.648 58.253,3.431 58.299,3.163 58.630 C 2.933 58.913,2.687 59.000,2.112 59.000 C 1.177 59.000,1.076 59.300,1.253 61.536 C 1.354 62.813,1.420 63.054,1.686 63.123 C 2.169 63.250,2.169 68.084,1.686 68.210 C 1.292 68.313,0.997 71.371,1.323 71.980 C 1.677 72.641,9.282 72.481,9.458 71.808 C 9.569 71.384,31.167 71.319,31.167 71.742 C 31.167 72.322,38.444 72.651,39.500 72.118 C 40.028 71.852,40.116 71.288,39.691 70.890 C 39.070 70.308,38.981 60.500,39.598 60.500 C 39.724 60.500,39.876 60.306,39.935 60.069 C 40.094 59.435,39.684 59.126,38.558 59.033 C 37.852 58.974,37.525 58.862,37.318 58.606 C 37.073 58.304,36.814 58.252,35.269 58.194 C 33.709 58.137,33.500 58.094,33.500 57.832 C 33.500 57.657,33.333 57.494,33.089 57.433 C 32.599 57.310,31.883 56.631,31.803 56.214 C 31.772 56.051,31.579 55.893,31.373 55.863 C 31.025 55.814,31.000 55.727,31.000 54.572 C 31.000 53.362,30.990 53.333,30.583 53.333 L 30.167 53.333 30.167 49.595 L 30.167 45.857 30.542 45.803 L 30.917 45.750 30.960 39.226 L 31.004 32.702 31.419 32.598 C 31.789 32.505,31.833 32.407,31.833 31.687 C 31.833 30.801,32.579 30.548,32.699 31.393 C 32.731 31.616,32.890 31.770,33.125 31.803 C 33.396 31.842,33.500 31.968,33.500 32.262 C 33.500 32.583,33.587 32.667,33.917 32.667 C 34.299 32.667,34.333 32.728,34.333 33.413 C 34.333 34.061,34.386 34.174,34.731 34.260 C 35.037 34.337,35.152 34.508,35.231 35.002 C 35.301 35.442,35.438 35.678,35.667 35.750 C 35.913 35.828,36.000 36.002,36.000 36.416 C 36.000 36.949,36.345 37.500,36.679 37.500 C 36.764 37.500,36.833 37.688,36.833 37.917 C 36.833 38.250,36.917 38.333,37.250 38.333 C 37.646 38.333,37.667 38.381,37.669 39.292 C 37.672 40.320,37.757 40.549,38.199 40.712 C 38.399 40.785,38.496 41.048,38.532 41.616 C 38.576 42.301,38.638 42.424,38.958 42.470 C 39.289 42.517,39.333 42.620,39.333 43.345 C 39.333 44.110,39.362 44.167,39.750 44.167 C 40.148 44.167,40.167 44.212,40.167 45.157 C 40.167 45.948,40.232 46.193,40.490 46.374 C 40.704 46.524,40.852 46.892,40.928 47.467 C 41.016 48.132,41.110 48.333,41.331 48.333 C 41.573 48.333,41.634 48.553,41.713 49.704 C 41.789 50.807,41.873 51.129,42.143 51.348 C 42.380 51.540,42.495 51.863,42.532 52.435 L 42.583 53.250 43.750 53.303 C 45.594 53.387,46.667 53.209,46.667 52.821 C 46.667 52.515,46.819 52.500,50.000 52.500 C 53.153 52.500,53.333 52.517,53.333 52.814 C 53.333 53.230,53.765 53.328,55.592 53.331 C 57.406 53.334,57.500 53.263,57.500 51.903 C 57.500 51.041,57.550 50.859,57.808 50.792 C 58.140 50.705,58.333 50.046,58.333 48.999 C 58.333 48.525,58.410 48.352,58.648 48.290 C 58.903 48.223,58.984 47.985,59.081 47.021 C 59.183 46.007,59.247 45.833,59.517 45.833 C 59.789 45.833,59.833 45.706,59.833 44.917 C 59.833 44.128,59.878 44.000,60.149 44.000 C 60.553 44.000,60.667 43.687,60.667 42.570 C 60.667 41.718,60.690 41.667,61.083 41.667 C 61.472 41.667,61.500 41.611,61.500 40.833 C 61.500 40.056,61.528 40.000,61.917 40.000 C 62.306 40.000,62.333 39.944,62.333 39.167 C 62.333 38.389,62.361 38.333,62.750 38.333 C 63.139 38.333,63.167 38.278,63.167 37.500 C 63.167 36.722,63.194 36.667,63.583 36.667 C 63.965 36.667,64.000 36.604,64.000 35.935 C 64.000 35.293,64.051 35.190,64.417 35.098 C 64.782 35.006,64.833 34.904,64.833 34.258 C 64.833 33.623,64.884 33.516,65.208 33.470 C 65.444 33.437,65.602 33.283,65.635 33.057 C 65.666 32.839,65.845 32.658,66.093 32.596 C 66.381 32.524,66.500 32.378,66.500 32.100 C 66.500 31.848,66.618 31.675,66.829 31.620 C 67.062 31.559,67.189 31.335,67.267 30.850 C 67.394 30.051,68.094 29.819,68.197 30.542 C 68.230 30.778,68.384 30.936,68.613 30.968 C 68.966 31.019,68.978 31.095,69.030 33.609 C 69.081 36.059,69.103 36.213,69.458 36.500 C 69.832 36.802,69.833 36.825,69.833 41.641 C 69.833 46.470,69.921 47.333,70.413 47.333 C 70.631 47.333,70.667 47.756,70.667 50.333 L 70.667 53.333 70.250 53.333 C 69.843 53.333,69.833 53.361,69.833 54.583 C 69.833 55.806,69.824 55.833,69.417 55.833 C 69.083 55.833,69.000 55.917,69.000 56.250 C 69.000 56.562,68.912 56.667,68.651 56.667 C 68.448 56.667,68.267 56.799,68.219 56.984 C 68.166 57.187,67.929 57.341,67.564 57.409 C 67.250 57.468,66.901 57.663,66.789 57.842 C 66.625 58.105,66.396 58.167,65.585 58.169 C 64.016 58.171,63.333 58.326,63.333 58.680 C 63.333 58.928,63.174 58.992,62.458 59.033 L 61.583 59.083 61.583 65.667 L 61.583 72.250 64.969 72.295 C 68.447 72.342,69.667 72.198,69.667 71.744 C 69.667 71.308,91.264 71.385,91.378 71.820 C 91.497 72.275,92.335 72.359,96.167 72.300 L 99.417 72.250 99.463 70.208 C 99.508 68.252,99.496 68.167,99.172 68.167 C 98.847 68.167,98.833 68.068,98.833 65.667 C 98.833 63.278,98.848 63.167,99.167 63.167 C 99.482 63.167,99.500 63.056,99.500 61.083 L 99.500 59.000 98.735 59.000 C 98.146 59.000,97.901 58.915,97.670 58.630 C 97.402 58.299,97.185 58.253,95.602 58.194 C 94.010 58.135,93.833 58.098,93.833 57.818 C 93.833 57.625,93.675 57.467,93.417 57.402 C 93.156 57.336,93.000 57.179,93.000 56.982 C 93.000 56.757,92.881 56.667,92.583 56.667 C 92.250 56.667,92.167 56.583,92.167 56.250 C 92.167 55.919,92.083 55.833,91.757 55.833 C 91.365 55.833,91.346 55.784,91.299 54.625 C 91.254 53.521,91.218 53.412,90.880 53.364 C 90.524 53.313,90.508 53.235,90.463 51.281 C 90.418 49.326,90.403 49.248,90.047 49.197 C 89.691 49.147,89.675 49.068,89.630 47.114 C 89.585 45.151,89.571 45.082,89.208 45.030 C 88.940 44.992,88.833 44.864,88.833 44.583 C 88.833 44.302,88.940 44.175,89.208 44.137 C 89.571 44.085,89.585 44.016,89.630 42.045 C 89.672 40.217,89.711 39.988,90.004 39.831 C 90.207 39.723,90.371 39.405,90.437 38.995 C 90.526 38.440,90.606 38.333,90.938 38.333 C 91.246 38.333,91.333 38.243,91.333 37.928 C 91.333 37.635,91.437 37.508,91.708 37.470 C 92.333 37.381,92.259 36.104,91.625 36.031 C 91.369 36.001,91.167 35.875,91.167 35.745 C 91.167 35.617,91.017 35.431,90.833 35.333 C 90.638 35.229,90.500 34.984,90.500 34.744 C 90.500 34.423,90.414 34.333,90.103 34.333 C 89.736 34.333,89.701 34.256,89.632 33.304 C 89.573 32.480,89.485 32.225,89.196 32.033 C 88.858 31.809,88.833 31.660,88.833 29.824 C 88.833 27.759,88.678 27.000,88.254 27.000 C 88.035 27.000,88.000 26.534,88.000 23.583 L 88.000 20.167 88.417 20.167 C 88.806 20.167,88.833 20.111,88.833 19.333 C 88.833 18.556,88.861 18.500,89.250 18.500 C 89.548 18.500,89.667 18.410,89.667 18.184 C 89.667 17.856,89.973 17.667,90.504 17.667 C 90.675 17.667,90.912 17.528,91.032 17.359 C 91.204 17.117,91.551 17.031,92.663 16.955 C 93.822 16.877,94.126 16.797,94.356 16.513 C 94.584 16.232,94.825 16.167,95.640 16.167 C 96.329 16.167,96.725 16.085,96.905 15.905 C 97.361 15.448,97.189 14.500,96.649 14.500 C 96.346 14.500,96.333 14.295,96.333 9.500 C 96.333 4.705,96.346 4.500,96.649 4.500 C 97.189 4.500,97.361 3.552,96.905 3.095 C 96.364 2.554,91.593 2.779,91.410 3.354 C 91.317 3.648,91.077 3.667,87.417 3.667 C 83.447 3.667,83.000 3.735,83.000 4.345 C 83.000 4.436,81.479 4.500,79.333 4.500 C 77.188 4.500,75.667 4.436,75.667 4.345 C 75.667 3.735,75.220 3.667,71.238 3.667 C 67.518 3.667,67.333 3.652,67.333 3.351 C 67.333 2.894,67.034 2.833,64.770 2.833 C 62.289 2.833,62.333 2.800,62.333 4.681 C 62.333 5.948,62.295 6.138,62.025 6.208 C 61.710 6.291,61.506 7.032,61.502 8.106 C 61.501 8.473,61.408 8.652,61.190 8.709 C 60.940 8.774,60.858 9.018,60.764 9.978 C 60.663 11.003,60.602 11.167,60.323 11.167 C 60.032 11.167,60.000 11.291,60.000 12.417 C 60.000 13.639,59.991 13.667,59.583 13.667 C 59.194 13.667,59.167 13.722,59.167 14.500 C 59.167 15.278,59.139 15.333,58.750 15.333 C 58.361 15.333,58.333 15.389,58.333 16.167 C 58.333 16.940,58.304 17.000,57.924 17.000 C 57.531 17.000,57.513 17.050,57.466 18.208 C 57.421 19.317,57.386 19.421,57.042 19.470 C 56.718 19.516,56.667 19.623,56.667 20.250 C 56.667 20.877,56.615 20.984,56.292 21.030 C 55.973 21.075,55.909 21.200,55.866 21.865 C 55.824 22.523,55.759 22.654,55.450 22.698 C 55.141 22.742,55.075 22.872,55.033 23.531 C 54.990 24.190,54.925 24.321,54.616 24.365 C 54.306 24.409,54.242 24.539,54.199 25.208 C 54.153 25.923,54.109 26.000,53.741 26.000 C 53.363 26.000,53.333 26.061,53.333 26.833 C 53.333 27.611,53.306 27.667,52.917 27.667 C 52.528 27.667,52.500 27.722,52.500 28.500 C 52.500 29.278,52.472 29.333,52.083 29.333 C 51.735 29.333,51.667 29.412,51.667 29.814 C 51.667 30.152,51.569 30.320,51.338 30.380 C 51.106 30.441,50.978 30.663,50.903 31.134 C 50.723 32.260,49.278 32.266,49.099 31.141 C 49.022 30.664,48.894 30.441,48.662 30.380 C 48.431 30.320,48.333 30.152,48.333 29.814 C 48.333 29.412,48.265 29.333,47.917 29.333 C 47.528 29.333,47.500 29.278,47.500 28.500 C 47.500 27.727,47.470 27.667,47.092 27.667 C 46.725 27.667,46.680 27.590,46.634 26.875 C 46.591 26.205,46.527 26.075,46.217 26.031 C 45.908 25.987,45.843 25.857,45.800 25.198 C 45.758 24.533,45.694 24.409,45.375 24.363 C 45.051 24.317,45.000 24.210,45.000 23.575 C 45.000 22.930,44.949 22.827,44.583 22.735 C 44.218 22.644,44.167 22.540,44.167 21.902 C 44.167 21.263,44.115 21.160,43.750 21.068 C 43.385 20.977,43.333 20.874,43.333 20.232 C 43.333 19.562,43.298 19.500,42.917 19.500 C 42.519 19.500,42.500 19.455,42.500 18.512 C 42.500 17.570,42.248 17.000,41.831 17.000 C 41.750 17.000,41.662 16.644,41.634 16.208 C 41.591 15.533,41.528 15.409,41.208 15.363 C 40.877 15.316,40.833 15.214,40.833 14.488 C 40.833 13.723,40.805 13.667,40.417 13.667 C 40.011 13.667,40.000 13.634,40.000 12.484 C 40.000 11.465,39.957 11.291,39.685 11.220 C 39.362 11.135,39.167 10.543,39.167 9.647 C 39.167 9.350,39.041 9.091,38.833 8.961 C 38.638 8.839,38.500 8.573,38.500 8.317 C 38.500 7.199,38.284 6.340,37.978 6.243 C 37.707 6.157,37.667 5.965,37.667 4.751 C 37.667 2.836,37.663 2.833,35.096 2.833 C 32.989 2.833,32.000 3.025,32.000 3.433 C 32.000 3.626,31.381 3.667,28.429 3.667 C 24.798 3.667,24.333 3.744,24.333 4.345 C 24.333 4.436,22.780 4.500,20.583 4.500 C 17.022 4.500,16.833 4.484,16.833 4.186 C 16.833 3.716,16.438 3.671,12.292 3.669 C 9.151 3.667,8.500 3.627,8.500 3.433 C 8.500 2.872,3.556 2.511,3.033 3.033 M107.076 3.042 C 107.032 3.157,107.016 6.138,107.040 9.667 L 107.083 16.083 107.875 16.134 C 108.511 16.175,108.667 16.245,108.667 16.488 C 108.667 16.860,109.261 17.000,110.835 17.000 C 111.821 17.000,111.972 17.041,112.048 17.333 C 112.104 17.546,112.277 17.667,112.526 17.669 C 113.246 17.673,113.667 17.864,113.667 18.186 C 113.667 18.410,113.786 18.500,114.083 18.500 C 114.472 18.500,114.500 18.556,114.500 19.333 C 114.500 20.111,114.528 20.167,114.917 20.167 L 115.333 20.167 115.333 25.572 L 115.333 30.977 114.958 31.030 C 114.603 31.081,114.581 31.167,114.536 32.698 C 114.491 34.220,114.467 34.315,114.119 34.364 C 113.887 34.397,113.731 34.553,113.698 34.784 C 113.669 34.986,113.508 35.194,113.341 35.248 C 113.173 35.301,112.997 35.492,112.950 35.672 C 112.893 35.892,112.722 36.000,112.432 36.000 C 112.031 36.000,112.000 36.054,112.000 36.750 C 112.000 37.439,112.034 37.500,112.417 37.500 C 112.750 37.500,112.833 37.583,112.833 37.917 C 112.833 38.250,112.917 38.333,113.250 38.333 C 113.639 38.333,113.667 38.389,113.667 39.167 C 113.667 39.942,113.695 40.000,114.078 40.000 L 114.490 40.000 114.537 42.042 C 114.582 44.016,114.596 44.085,114.958 44.137 L 115.333 44.190 115.333 49.595 L 115.333 55.000 114.926 55.000 C 114.558 55.000,114.513 55.077,114.467 55.792 C 114.424 56.467,114.362 56.591,114.042 56.637 C 113.806 56.670,113.667 56.805,113.667 57.001 C 113.667 57.244,113.496 57.338,112.895 57.429 C 112.342 57.512,112.101 57.632,112.043 57.855 C 111.974 58.117,111.796 58.167,110.918 58.167 C 109.479 58.167,108.804 58.324,108.711 58.684 C 108.652 58.908,108.437 58.996,107.858 59.033 L 107.083 59.083 107.083 65.667 L 107.083 72.250 112.667 72.300 C 119.015 72.356,119.998 72.293,120.122 71.819 C 120.252 71.320,160.000 71.317,160.000 71.816 C 160.000 71.989,160.119 72.177,160.264 72.232 C 160.677 72.391,171.890 72.345,172.144 72.184 C 172.553 71.925,172.332 69.511,171.871 69.205 C 171.507 68.964,171.500 68.894,171.498 65.355 C 171.495 61.428,171.453 61.060,170.982 60.911 C 170.451 60.743,170.507 57.379,171.042 57.303 L 171.417 57.250 171.461 53.125 C 171.500 49.580,171.541 49.000,171.757 49.000 C 172.141 49.000,172.352 48.225,172.299 47.013 L 172.250 45.917 170.250 45.917 C 168.303 45.917,168.249 45.927,168.197 46.292 L 168.143 46.667 162.408 46.667 L 156.673 46.667 156.568 46.250 C 156.464 45.835,156.457 45.833,154.477 45.833 L 152.490 45.833 152.537 47.875 C 152.582 49.849,152.596 49.918,152.958 49.970 C 153.494 50.046,153.552 54.075,153.020 54.244 C 152.683 54.351,152.500 54.971,152.500 56.009 C 152.500 56.540,152.439 56.652,152.125 56.697 C 151.814 56.741,151.741 56.870,151.699 57.448 C 151.658 58.021,151.583 58.155,151.283 58.198 C 151.054 58.230,150.897 58.387,150.865 58.615 C 150.832 58.842,150.675 58.999,150.448 59.031 C 150.217 59.064,150.064 59.221,150.030 59.458 C 149.985 59.772,149.873 59.833,149.343 59.833 C 148.295 59.833,147.703 60.011,147.614 60.351 C 147.473 60.890,141.713 60.832,141.637 60.292 C 141.588 59.950,141.481 59.912,140.437 59.867 C 139.509 59.827,139.236 59.750,139.006 59.466 C 138.797 59.207,138.474 59.095,137.778 59.037 L 136.833 58.959 136.833 51.146 L 136.833 43.333 142.149 43.333 L 147.464 43.333 147.568 43.750 C 147.667 44.143,147.737 44.167,148.797 44.167 C 149.803 44.167,149.938 44.206,150.085 44.542 C 150.276 44.975,151.153 45.124,151.884 44.846 C 152.459 44.627,152.543 43.690,152.000 43.548 C 151.489 43.415,151.475 31.019,151.986 30.885 C 152.379 30.783,152.570 30.108,152.332 29.663 C 152.027 29.094,149.167 29.168,149.167 29.745 L 149.167 30.158 146.792 30.204 C 144.472 30.249,144.415 30.259,144.363 30.625 C 144.288 31.158,140.924 31.215,140.756 30.687 C 140.631 30.293,140.018 30.167,138.229 30.167 L 136.833 30.167 136.833 23.594 L 136.833 17.020 137.583 16.908 C 138.143 16.824,138.333 16.722,138.333 16.504 C 138.333 16.268,138.531 16.195,139.374 16.119 C 140.177 16.046,140.468 15.945,140.645 15.679 C 140.986 15.164,149.167 15.134,149.167 15.647 C 149.167 15.979,149.590 16.160,150.375 16.164 C 150.720 16.166,150.833 16.248,150.833 16.497 C 150.833 16.710,150.981 16.864,151.250 16.932 C 151.500 16.994,151.667 17.155,151.667 17.333 C 151.667 17.510,151.833 17.672,152.076 17.733 C 152.453 17.828,152.489 17.924,152.534 18.960 C 152.579 19.980,152.618 20.088,152.958 20.137 C 153.576 20.224,153.537 23.443,152.917 23.598 C 152.501 23.702,152.500 23.710,152.500 25.685 L 152.500 27.667 154.004 27.667 C 155.446 27.667,155.515 27.650,155.697 27.250 L 155.887 26.833 162.432 26.833 L 168.977 26.833 169.030 27.208 C 169.081 27.567,169.152 27.583,170.667 27.583 L 172.250 27.583 172.299 26.487 C 172.353 25.272,172.141 24.500,171.754 24.500 C 171.534 24.500,171.500 23.999,171.500 20.750 L 171.500 17.000 171.083 17.000 L 170.667 17.000 170.667 15.261 C 170.667 13.702,170.699 13.512,170.982 13.422 C 171.448 13.274,171.495 12.899,171.498 9.292 C 171.500 6.454,171.535 6.000,171.754 6.000 C 172.141 6.000,172.353 5.228,172.299 4.013 L 172.250 2.917 168.583 2.870 C 164.549 2.818,164.237 2.850,164.085 3.329 C 163.983 3.649,163.772 3.659,155.642 3.704 L 147.304 3.750 147.000 4.125 L 146.697 4.500 140.098 4.500 C 133.735 4.500,133.500 4.489,133.500 4.184 C 133.500 3.674,133.363 3.667,124.164 3.667 C 115.688 3.667,115.352 3.655,115.256 3.353 C 115.112 2.898,114.534 2.833,110.641 2.833 C 108.003 2.833,107.137 2.884,107.076 3.042 M272.444 2.944 C 272.383 3.006,272.333 5.438,272.333 8.350 L 272.333 13.643 271.958 13.697 C 271.604 13.747,271.581 13.836,271.535 15.312 C 271.493 16.690,271.444 16.909,271.118 17.172 C 270.800 17.430,270.742 17.666,270.691 18.902 C 270.634 20.285,270.619 20.333,270.233 20.333 C 269.850 20.333,269.833 20.381,269.833 21.482 C 269.833 22.568,269.811 22.636,269.417 22.735 C 269.023 22.834,269.000 22.902,269.000 23.992 C 269.000 25.059,268.973 25.147,268.625 25.197 C 268.308 25.242,268.242 25.367,268.201 26.005 C 268.162 26.598,268.072 26.796,267.784 26.922 C 267.492 27.050,267.406 27.246,267.366 27.875 C 267.330 28.437,267.244 28.667,267.070 28.667 C 266.797 28.667,266.500 29.314,266.500 29.908 C 266.500 30.152,266.379 30.326,266.171 30.380 C 265.939 30.441,265.811 30.664,265.735 31.141 C 265.652 31.660,265.545 31.827,265.272 31.866 C 265.050 31.898,264.897 32.058,264.863 32.292 C 264.834 32.498,264.666 32.745,264.489 32.839 C 264.295 32.943,264.128 33.266,264.065 33.663 C 263.985 34.161,263.876 34.327,263.605 34.366 C 263.387 34.397,263.230 34.558,263.198 34.781 C 263.166 35.009,263.009 35.166,262.781 35.198 C 262.551 35.231,262.397 35.388,262.363 35.625 C 262.317 35.949,262.211 36.000,261.572 36.000 L 260.833 36.000 260.833 36.750 C 260.833 37.389,260.883 37.500,261.167 37.500 C 261.487 37.500,261.500 37.611,261.500 40.397 C 261.500 43.154,261.484 43.299,261.167 43.382 C 260.918 43.447,260.833 43.610,260.831 44.026 C 260.828 45.123,260.639 45.802,260.314 45.887 C 260.044 45.957,260.000 46.133,260.000 47.151 C 260.000 48.301,259.989 48.333,259.583 48.333 C 259.194 48.333,259.167 48.389,259.167 49.167 C 259.167 49.944,259.139 50.000,258.750 50.000 C 258.361 50.000,258.333 50.056,258.333 50.833 C 258.333 51.611,258.306 51.667,257.917 51.667 C 257.528 51.667,257.500 51.722,257.500 52.500 C 257.500 53.278,257.472 53.333,257.083 53.333 C 256.750 53.333,256.667 53.417,256.667 53.750 C 256.667 53.979,256.597 54.167,256.512 54.167 C 256.176 54.167,255.833 54.720,255.833 55.262 C 255.833 55.760,255.780 55.833,255.417 55.833 C 255.083 55.833,255.000 55.917,255.000 56.250 C 255.000 56.583,254.917 56.667,254.583 56.667 C 254.287 56.667,254.167 56.757,254.167 56.979 C 254.167 57.227,253.997 57.313,253.333 57.401 C 252.653 57.491,252.500 57.572,252.500 57.839 C 252.500 58.127,252.383 58.167,251.542 58.169 C 250.083 58.171,249.356 58.332,249.247 58.677 C 249.194 58.843,248.986 59.002,248.784 59.031 L 248.417 59.083 248.417 65.667 L 248.417 72.250 251.333 72.300 C 254.822 72.360,255.610 72.275,255.753 71.824 C 255.912 71.324,274.833 71.313,274.833 71.814 C 274.833 71.999,274.988 72.169,275.208 72.228 C 275.816 72.391,281.107 72.348,281.558 72.176 C 282.263 71.908,282.325 70.959,281.651 70.745 C 281.147 70.585,281.157 60.682,281.661 60.550 C 282.917 60.221,281.944 59.000,280.425 59.000 C 279.865 59.000,279.688 58.932,279.625 58.692 C 279.523 58.302,278.862 58.167,277.063 58.167 C 275.923 58.167,275.667 58.120,275.667 57.913 C 275.667 57.628,275.024 57.333,274.406 57.333 C 273.808 57.333,273.779 55.721,274.375 55.637 C 274.685 55.593,274.759 55.464,274.800 54.891 C 274.842 54.315,274.920 54.181,275.259 54.096 C 275.510 54.033,275.667 53.874,275.667 53.682 C 275.667 53.488,275.824 53.330,276.083 53.265 C 276.347 53.199,276.500 53.043,276.500 52.840 C 276.500 52.582,276.638 52.509,277.208 52.468 C 277.755 52.428,277.954 52.331,278.081 52.042 C 278.244 51.671,278.281 51.667,281.609 51.667 C 285.228 51.667,285.500 51.630,285.500 51.149 C 285.500 50.881,285.627 50.833,286.333 50.833 C 286.954 50.833,287.167 50.896,287.167 51.077 C 287.167 51.564,287.816 51.667,290.886 51.667 C 293.737 51.667,293.967 51.689,294.042 51.975 C 294.126 52.299,294.784 52.500,295.759 52.500 C 296.204 52.500,296.320 52.572,296.363 52.875 C 296.398 53.116,296.551 53.269,296.792 53.303 C 297.027 53.337,297.167 53.472,297.167 53.667 C 297.167 53.861,297.306 53.997,297.540 54.030 C 297.762 54.062,297.933 54.218,297.963 54.417 C 298.090 55.267,298.191 55.485,298.500 55.583 C 298.773 55.670,298.833 55.836,298.833 56.497 L 298.833 57.304 298.164 57.417 C 297.760 57.485,297.428 57.656,297.325 57.848 C 297.188 58.104,296.968 58.167,296.202 58.169 C 294.716 58.171,293.967 58.340,293.875 58.692 C 293.811 58.939,293.632 59.000,292.979 59.000 L 292.163 59.000 292.206 65.625 L 292.250 72.250 295.500 72.297 C 299.139 72.350,299.500 72.308,299.500 71.830 C 299.500 71.504,299.646 71.500,310.333 71.500 C 320.851 71.500,321.167 71.509,321.167 71.816 C 321.167 71.989,321.285 72.177,321.430 72.232 C 321.832 72.386,330.553 72.348,330.800 72.191 C 331.215 71.927,330.993 69.928,330.542 69.863 L 330.167 69.810 330.167 65.675 C 330.167 61.643,330.175 61.535,330.521 61.305 C 331.502 60.654,331.100 59.007,329.958 59.003 C 329.458 59.001,329.333 58.937,329.333 58.686 C 329.333 58.303,328.902 58.172,327.625 58.169 C 326.915 58.167,326.667 58.106,326.667 57.933 C 326.667 57.637,325.810 57.333,324.975 57.333 C 324.455 57.333,324.333 57.273,324.333 57.016 C 324.333 56.761,324.168 56.675,323.500 56.583 C 322.832 56.491,322.667 56.406,322.667 56.151 C 322.667 55.923,322.549 55.833,322.250 55.833 C 321.861 55.833,321.833 55.778,321.833 55.000 C 321.833 54.227,321.804 54.167,321.426 54.167 C 321.058 54.167,321.013 54.090,320.967 53.375 C 320.924 52.699,320.862 52.576,320.542 52.530 C 320.253 52.489,320.167 52.368,320.167 52.002 C 320.167 51.361,320.011 51.000,319.735 51.000 C 319.609 51.000,319.467 50.813,319.420 50.583 C 319.372 50.354,319.294 49.979,319.247 49.750 C 319.199 49.521,319.058 49.333,318.933 49.333 C 318.782 49.333,318.666 49.024,318.591 48.417 C 318.500 47.690,318.414 47.500,318.178 47.500 C 317.938 47.500,317.861 47.314,317.781 46.542 C 317.711 45.859,317.584 45.504,317.341 45.307 C 317.070 45.087,317.000 44.836,317.000 44.087 C 317.000 43.060,316.792 42.500,316.411 42.500 C 316.209 42.500,316.167 42.135,316.167 40.417 C 316.167 38.491,316.190 38.333,316.479 38.333 C 316.824 38.333,317.000 37.762,317.000 36.646 C 317.000 36.076,316.953 36.000,316.601 36.000 C 316.315 36.000,316.173 35.882,316.098 35.583 C 316.022 35.279,315.882 35.167,315.580 35.167 C 315.328 35.167,315.167 35.071,315.167 34.923 C 315.167 34.788,315.025 34.603,314.853 34.510 C 314.680 34.418,314.491 34.153,314.433 33.921 C 314.364 33.648,314.211 33.500,313.997 33.500 C 313.756 33.500,313.667 33.388,313.667 33.083 C 313.667 32.752,313.583 32.667,313.259 32.667 C 312.891 32.667,312.847 32.590,312.801 31.875 C 312.757 31.199,312.695 31.076,312.375 31.030 C 312.071 30.987,312.000 30.871,312.000 30.419 C 312.000 29.650,311.852 29.333,311.491 29.333 C 311.244 29.333,311.175 29.181,311.134 28.542 C 311.091 27.866,311.028 27.742,310.708 27.697 C 310.385 27.651,310.333 27.544,310.333 26.916 C 310.333 26.007,310.087 25.333,309.754 25.333 C 309.562 25.333,309.499 25.139,309.498 24.542 C 309.495 23.467,309.356 23.030,308.982 22.911 C 308.710 22.825,308.667 22.641,308.667 21.572 C 308.667 20.362,308.657 20.333,308.250 20.333 L 307.833 20.333 307.833 18.667 L 307.833 17.000 307.417 17.000 L 307.000 17.000 307.000 15.011 C 307.000 12.930,306.845 12.167,306.423 12.167 C 306.206 12.167,306.166 11.534,306.128 7.542 L 306.083 2.917 304.417 2.865 C 302.161 2.796,301.333 2.925,301.333 3.344 C 301.333 3.653,301.185 3.667,297.771 3.667 C 293.803 3.667,293.160 3.738,293.042 4.192 C 292.915 4.677,284.667 4.669,284.667 4.184 C 284.667 3.702,284.395 3.667,280.721 3.667 C 277.498 3.667,277.297 3.648,277.219 3.349 C 277.097 2.882,272.865 2.524,272.444 2.944 M336.111 2.944 C 336.050 3.006,336.000 3.943,336.000 5.028 L 336.000 7.000 336.417 7.000 L 336.833 7.000 336.833 23.899 L 336.833 40.797 336.417 40.902 C 336.009 41.004,336.000 41.040,336.000 42.587 L 336.000 44.167 337.542 44.164 C 339.368 44.162,339.788 44.071,339.922 43.649 C 340.019 43.345,340.319 43.333,347.916 43.333 L 355.810 43.333 355.863 43.708 C 355.957 44.367,358.705 44.334,358.915 43.671 C 358.970 43.497,359.181 43.331,359.383 43.302 C 359.616 43.269,359.769 43.113,359.803 42.875 C 359.842 42.604,359.968 42.500,360.262 42.500 C 360.583 42.500,360.667 42.413,360.667 42.083 C 360.667 41.694,360.722 41.667,361.500 41.667 C 362.278 41.667,362.333 41.639,362.333 41.250 L 362.333 40.833 366.072 40.833 L 369.810 40.833 369.863 41.208 C 369.909 41.527,370.033 41.591,370.698 41.634 C 371.357 41.676,371.487 41.741,371.531 42.050 C 371.568 42.310,371.717 42.432,372.042 42.469 C 372.308 42.500,372.500 42.624,372.500 42.765 C 372.500 42.899,372.677 43.076,372.894 43.158 C 373.111 43.240,373.328 43.464,373.378 43.654 C 373.428 43.844,373.588 44.000,373.734 44.000 C 373.918 44.000,374.000 44.154,374.000 44.500 C 374.000 44.922,374.065 45.000,374.417 45.000 C 374.806 45.000,374.833 45.056,374.833 45.833 C 374.833 46.611,374.861 46.667,375.250 46.667 L 375.667 46.667 375.667 50.833 L 375.667 55.000 375.250 55.000 C 374.861 55.000,374.833 55.056,374.833 55.833 C 374.833 56.611,374.806 56.667,374.417 56.667 C 374.086 56.667,374.000 56.751,374.000 57.072 C 374.000 57.323,373.880 57.516,373.685 57.578 C 373.511 57.633,373.331 57.825,373.284 58.006 C 373.231 58.205,373.056 58.333,372.833 58.333 C 372.612 58.333,372.435 58.461,372.384 58.657 C 372.337 58.835,372.138 59.004,371.941 59.032 C 371.717 59.064,371.563 59.224,371.530 59.458 C 371.482 59.798,371.386 59.833,370.502 59.833 C 369.313 59.833,369.000 59.941,369.000 60.351 C 369.000 60.890,364.047 60.832,363.970 60.292 C 363.925 59.973,363.800 59.909,363.142 59.867 C 362.551 59.828,362.349 59.743,362.286 59.505 C 362.228 59.282,361.988 59.160,361.445 59.079 C 360.839 58.988,360.675 58.892,360.634 58.607 C 360.602 58.384,360.443 58.230,360.208 58.197 C 359.934 58.158,359.833 58.032,359.833 57.727 C 359.833 57.179,359.549 56.667,359.244 56.667 C 359.095 56.667,359.000 56.505,359.000 56.250 C 359.000 55.944,358.911 55.833,358.667 55.833 C 358.349 55.833,358.333 55.722,358.333 53.438 C 358.333 52.120,358.286 50.807,358.229 50.521 L 358.125 50.000 353.229 50.000 L 348.333 50.000 348.333 50.417 C 348.333 51.034,345.891 51.075,345.803 50.458 L 345.750 50.083 340.458 50.039 L 335.167 49.995 335.167 51.146 C 335.167 52.235,335.189 52.303,335.583 52.402 L 336.000 52.506 336.000 59.087 L 336.000 65.667 337.238 65.667 C 338.396 65.667,338.480 65.691,338.530 66.042 C 338.582 66.408,338.639 66.418,340.947 66.463 C 343.247 66.508,343.313 66.519,343.364 66.880 C 343.412 67.218,343.521 67.254,344.614 67.299 C 345.705 67.343,345.817 67.380,345.864 67.715 C 345.909 68.026,346.038 68.091,346.698 68.134 C 347.357 68.176,347.487 68.241,347.531 68.550 C 347.568 68.810,347.717 68.932,348.042 68.969 C 348.294 68.998,348.500 69.118,348.500 69.234 C 348.500 69.476,349.194 69.833,349.663 69.833 C 349.862 69.833,349.996 69.971,350.030 70.208 C 350.064 70.446,350.217 70.602,350.448 70.635 C 350.675 70.668,350.832 70.825,350.865 71.052 C 350.898 71.283,351.054 71.436,351.292 71.470 C 351.531 71.504,351.667 71.638,351.667 71.842 C 351.667 72.043,351.821 72.199,352.083 72.265 C 352.335 72.328,352.500 72.488,352.500 72.670 C 352.500 73.315,355.551 73.295,355.719 72.649 C 355.794 72.366,355.973 72.333,357.443 72.331 C 359.403 72.328,359.833 72.235,359.833 71.814 C 359.833 71.511,360.091 71.500,366.917 71.500 C 373.743 71.500,374.000 71.511,374.000 71.814 C 374.000 72.252,374.425 72.328,376.875 72.331 C 378.838 72.333,379.000 72.357,379.000 72.645 C 379.000 73.389,382.093 73.353,382.199 72.608 C 382.231 72.384,382.390 72.230,382.625 72.197 C 382.896 72.158,383.000 72.032,383.000 71.738 C 383.000 71.487,383.096 71.333,383.254 71.333 C 383.393 71.333,383.593 71.146,383.697 70.917 C 383.801 70.687,383.989 70.500,384.114 70.500 C 384.238 70.500,384.426 70.313,384.530 70.083 C 384.638 69.848,384.860 69.667,385.042 69.667 C 385.221 69.667,385.402 69.523,385.449 69.343 C 385.496 69.165,385.695 68.996,385.892 68.968 C 386.116 68.936,386.270 68.776,386.303 68.542 C 386.342 68.270,386.468 68.167,386.762 68.167 C 387.083 68.167,387.167 68.080,387.167 67.750 C 387.167 67.396,387.244 67.333,387.678 67.333 C 388.311 67.333,388.833 67.067,388.833 66.744 C 388.833 66.595,388.995 66.500,389.250 66.500 C 389.581 66.500,389.667 66.416,389.667 66.092 C 389.667 65.725,389.744 65.680,390.458 65.634 C 391.128 65.591,391.258 65.527,391.302 65.217 C 391.346 64.908,391.477 64.843,392.135 64.800 C 392.800 64.758,392.925 64.694,392.970 64.375 C 393.016 64.051,393.123 64.000,393.758 64.000 C 394.400 64.000,394.507 63.948,394.596 63.592 C 394.684 63.242,394.810 63.176,395.474 63.133 C 396.134 63.091,396.258 63.027,396.303 62.708 C 396.354 62.350,396.425 62.333,397.928 62.333 L 399.500 62.333 399.500 61.186 C 399.500 60.207,399.454 60.027,399.189 59.958 C 398.917 59.886,398.864 59.629,398.758 57.855 C 398.648 56.017,398.608 55.833,398.319 55.833 C 397.832 55.833,397.820 46.753,398.307 46.625 C 398.634 46.540,398.830 44.825,398.832 42.042 C 398.833 40.945,398.864 40.833,399.167 40.833 C 399.449 40.833,399.500 40.722,399.500 40.103 C 399.500 39.331,399.311 39.175,398.375 39.169 C 398.151 39.168,398.000 39.064,398.000 38.913 C 398.000 38.628,397.358 38.333,396.739 38.333 C 396.444 38.333,396.333 38.242,396.333 38.000 C 396.333 37.758,396.222 37.667,395.928 37.667 C 395.635 37.667,395.508 37.563,395.470 37.292 C 395.437 37.056,395.283 36.898,395.057 36.865 C 394.839 36.834,394.658 36.655,394.596 36.407 C 394.522 36.112,394.380 36.000,394.080 36.000 C 393.821 36.000,393.667 35.905,393.667 35.746 C 393.667 35.607,393.479 35.407,393.250 35.303 C 393.021 35.199,392.833 35.015,392.833 34.896 C 392.833 34.776,392.689 34.601,392.512 34.506 C 392.335 34.412,392.166 34.165,392.137 33.959 C 392.102 33.717,391.949 33.564,391.708 33.530 C 391.437 33.492,391.333 33.365,391.333 33.072 C 391.333 32.751,391.247 32.667,390.917 32.667 C 390.583 32.667,390.500 32.583,390.500 32.250 C 390.500 31.919,390.416 31.833,390.092 31.833 C 389.725 31.833,389.680 31.756,389.634 31.042 C 389.591 30.366,389.528 30.242,389.208 30.197 C 388.937 30.158,388.833 30.032,388.833 29.738 C 388.833 29.419,388.746 29.333,388.424 29.333 C 388.031 29.333,388.013 29.284,387.966 28.125 C 387.921 27.016,387.886 26.912,387.542 26.863 C 387.270 26.825,387.167 26.698,387.167 26.405 C 387.167 25.778,384.864 25.787,384.235 26.417 C 383.823 26.828,383.784 26.833,380.992 26.833 L 378.167 26.833 378.167 27.250 L 378.167 27.667 376.417 27.667 C 374.811 27.667,374.667 27.641,374.667 27.351 C 374.667 26.869,374.395 26.833,370.736 26.833 L 367.333 26.833 367.333 26.409 C 367.333 25.796,364.952 25.834,364.865 26.448 C 364.832 26.675,364.675 26.832,364.448 26.865 C 364.224 26.897,364.064 27.054,364.033 27.272 C 363.994 27.542,363.828 27.652,363.336 27.730 C 362.891 27.801,362.656 27.938,362.583 28.167 C 362.516 28.379,362.331 28.500,362.075 28.500 C 361.785 28.500,361.644 28.616,361.568 28.917 C 361.469 29.314,361.407 29.333,360.232 29.333 L 359.000 29.333 359.000 23.186 L 359.000 17.038 359.769 16.923 C 360.306 16.842,360.562 16.717,360.616 16.509 C 360.677 16.277,360.923 16.190,361.721 16.117 C 362.511 16.046,362.802 15.944,362.978 15.679 C 363.323 15.159,371.409 15.136,371.545 15.654 C 371.606 15.887,371.838 16.005,372.398 16.089 C 372.999 16.179,373.167 16.273,373.167 16.519 C 373.167 16.743,373.286 16.833,373.583 16.833 C 373.917 16.833,374.000 16.917,374.000 17.250 C 374.000 17.583,374.083 17.667,374.417 17.667 L 374.833 17.667 374.833 20.170 L 374.833 22.673 378.458 22.628 C 382.075 22.583,382.083 22.582,382.137 22.208 L 382.190 21.833 386.333 21.833 L 390.477 21.833 390.530 22.208 C 390.583 22.581,390.604 22.584,393.876 22.629 L 397.169 22.674 397.126 12.795 L 397.083 2.917 394.333 2.868 C 391.086 2.809,390.500 2.882,390.500 3.341 C 390.500 3.660,390.324 3.667,382.097 3.667 C 373.314 3.667,373.167 3.675,373.167 4.184 C 373.167 4.489,372.914 4.500,365.667 4.500 C 358.419 4.500,358.167 4.489,358.167 4.184 C 358.167 3.677,357.998 3.667,350.070 3.667 C 342.754 3.667,342.500 3.656,342.500 3.351 C 342.500 3.178,342.381 2.990,342.236 2.934 C 341.877 2.796,336.250 2.806,336.111 2.944 M287.202 22.046 C 287.261 22.853,287.349 23.109,287.638 23.300 C 287.888 23.466,288.000 23.711,288.000 24.090 C 288.000 24.851,288.149 25.167,288.509 25.167 C 288.756 25.167,288.825 25.319,288.866 25.958 C 288.909 26.628,288.973 26.758,289.283 26.802 C 289.592 26.846,289.657 26.977,289.700 27.635 C 289.742 28.296,289.807 28.425,290.118 28.469 C 290.453 28.517,290.490 28.628,290.535 29.719 C 290.579 30.817,290.615 30.921,290.958 30.970 C 291.278 31.015,291.334 31.125,291.336 31.720 C 291.339 32.697,291.486 33.140,291.845 33.254 C 292.114 33.339,292.161 33.564,292.202 34.961 C 292.248 36.517,292.264 36.573,292.667 36.685 L 293.083 36.800 292.625 36.817 C 292.172 36.833,292.167 36.846,292.167 37.965 L 292.167 39.098 291.417 39.298 C 290.949 39.423,290.667 39.593,290.667 39.749 C 290.667 39.966,290.088 40.000,286.417 40.000 C 282.291 40.000,282.167 39.990,282.167 39.670 C 282.167 39.457,282.019 39.303,281.750 39.235 C 281.496 39.171,281.333 39.012,281.333 38.827 C 281.333 38.639,281.191 38.503,280.958 38.470 C 280.478 38.402,280.262 35.000,280.738 35.000 C 281.153 35.000,281.333 34.422,281.333 33.094 C 281.333 31.860,281.342 31.833,281.750 31.833 C 282.138 31.833,282.167 31.777,282.167 31.018 C 282.167 30.287,282.210 30.192,282.583 30.098 C 282.978 29.999,283.000 29.932,283.000 28.830 C 283.000 27.700,283.012 27.667,283.417 27.667 C 283.805 27.667,283.833 27.610,283.833 26.845 C 283.833 26.120,283.877 26.017,284.208 25.970 C 284.527 25.925,284.591 25.800,284.634 25.135 C 284.676 24.477,284.741 24.346,285.050 24.302 C 285.384 24.255,285.421 24.142,285.466 23.042 C 285.513 21.883,285.531 21.833,285.924 21.833 C 286.263 21.833,286.333 21.752,286.333 21.356 C 286.333 20.267,287.119 20.889,287.202 22.046 " stroke="none" fill="#c8ced3" fill-rule="evenodd"></path></g></svg>